<svg xmlns="http://www.w3.org/2000/svg" viewBox="0 0 64 64" role="img" aria-label="Patch x OpenAI favicon">
  <defs>
    <linearGradient id="g" x1="0" y1="0" x2="1" y2="1">
      <stop offset="0%" stop-color="#2346F7" />
      <stop offset="100%" stop-color="#30D6B0" />
    </linearGradient>
  </defs>
  <rect width="64" height="64" rx="18" fill="url(#g)" />
  <path d="M18 45V18h14.1c6.8 0 11.4 3.9 11.4 9.7s-4.6 9.7-11.4 9.7h-7V45H18Zm7.1-13.5h6.5c3 0 4.8-1.4 4.8-3.8s-1.8-3.8-4.8-3.8h-6.5v7.6Z" fill="#FFFFFF" />
  <path d="M42.8 46c-7.2 0-12.4-5.1-12.4-12.6s5.2-12.6 12.4-12.6c2.5 0 4.7.6 6.6 1.7l-2.5 5.4c-1.2-.7-2.5-1-4-1-3.5 0-5.9 2.7-5.9 6.6s2.4 6.6 5.9 6.6c1.7 0 3.2-.4 4.5-1.3l2.1 5.3c-1.9 1.3-4.2 1.9-6.7 1.9Z" fill="#1A2341" opacity="0.72" />
</svg>
